<svg xmlns="http://www.w3.org/2000/svg" width="176.2" height="105"><style>.st2{fill:#008d36}.st3{fill:#95c11f}.st4{fill:#432918}.st5{fill:#be1622}.st6{fill:#e56714}</style><path d="M44.7 105c-15.2 0-27.6-12.4-27.6-27.5 0-1.7-.1-4-.2-6.7-.4-9.5-1-23.8 1.9-31.5C26.2 16.2 54.8 0 88.4 0c33.7 0 61 16.4 67.7 39.6l.3.9C149.5 21 121.7 6.4 91 6.4c-30.6 0-58.6 14.2-65.2 33.7-2.6 6.5-2.5 20.1-2.2 28.5.1 2.5.2 5.2.2 6.8C23.9 87.6 35.1 99 48.1 99H132c13.2.2 24-10.2 25-21.6v1.1c0 15.3-10.8 26.4-26 26.4H44.7z" opacity=".85" fill="#432918"/><path d="M132 99H49c-13.8 0-25.1-10.6-25.1-23.7 0-7.1-1.9-25.6 1.6-34.2C32.1 21.3 59 6.4 91 6.4c31.8 0 58.4 14.6 65.4 34.2.1 0-.1 0 0 0-6.4-22.3-34.3-39.1-68-39.1-33.3 0-61.2 16.4-68.1 38.2-3.6 9.5-1.6 29.8-1.6 37.7 0 14.3 11.7 26 26 26h86.2c14.3 0 26-11.7 26-26v-.1h-.1C155.8 89.4 145 99 132 99z" fill="#f9b233"/><path class="st2" d="M0 65.5c0-4.2 41 8.1 91.3-1.2 41.7-7.7 84.9 4.2 84.9 4.2"/><path class="st2" d="M176.2 68.5c-1.8 6-31 3.5-85.3 11.7C41 87.7 0 65.5 0 65.5"/><path class="st3" d="M0 65.5c0-4.2 41 6.9 91.3-2.4 41.7-7.7 84.9 5.4 84.9 5.4"/><path class="st3" d="M176.2 68.5c0 4.2-45.5.3-85.3 5.7C31.9 82.1 0 65.5 0 65.5"/><path class="st4" d="M17.8 70c-1.2 0-2.5-.2-4.1-.5-1 .2-2 .4-3 .4-1.4 0-1.9-.1-2.4-.3L6.7 69l.2-1.7c.2-1.3.8-4.3 1.8-9.2 1.2-5.2 1.5-7.3 1.5-8.1-.2-.4-.4-.6-.6-.8l-1.2-1.3.6-3.1 1.5-.3c2.8-.6 5.8-.9 9-.9 2.2 0 4 .6 5.5 1.6 1.7 1.2 2.5 3 2.5 5.2 0 1.6-.4 3.8-2.4 5.6 1.4 1.3 2.1 3.1 2.1 5.3 0 2.6-1 4.7-2.8 6.3-1.7 1.7-4 2.4-6.6 2.4zm-.2-10.7c-.4 1.6-.7 3-.9 4.1.3-.1.5-.2.8-.5.4-.4.6-1.2.6-2.2 0-1.1-.2-1.3-.5-1.4z"/><path class="st5" d="M17.8 69c-1.1 0-2.5-.2-4.1-.6-1 .3-2 .4-2.9.4-1.4 0-1.7-.1-2-.2l-.9-.4.1-.9c.1-1.3.7-4.2 1.8-9.1 1.3-5.7 1.5-7.8 1.6-8.6 0 0-.1-.1-.2-.3-.2-.3-.4-.6-.7-.9l-.8-.9.4-1.9.8-.2c2.7-.6 5.7-.8 8.8-.8 1.9 0 3.6.5 4.9 1.4 1.4 1 2.1 2.5 2.1 4.4 0 1.8-.6 4-3 5.6.3.2.7.5 1 .8 1.2 1.1 1.8 2.6 1.8 4.5 0 2.3-.8 4.1-2.5 5.6-1.8 1.4-3.8 2.1-6.2 2.1zm-2.3-4.6c.2 0 .6.1 1 .1.7 0 1.3-.3 1.8-.9.6-.6.8-1.6.8-2.9 0-2.2-.9-2.4-1.9-2.4h-.5c-.5 2.6-.9 4.7-1.2 6.1zm3.2-15.3c-.2 1.3-.5 2.9-.9 4.6.1 0 .2-.1.3-.1.1-.1.3-.2.6-.6.5-.5.7-1.4.7-2.7 0-1.2-.3-1.2-.5-1.2h-.2z"/><path class="st6" d="M17.8 67.8c-1.1 0-2.5-.2-4.1-.6-1 .3-2 .4-2.9.4-.9 0-1.4 0-1.6-.1.1-1.2.7-4.2 1.8-8.9s1.6-7.7 1.6-8.9c0-.2-.1-.6-.4-1-.3-.4-.5-.7-.8-1l-.4-.5.1-.5c2.6-.5 5.5-.8 8.5-.8 1.7 0 3 .4 4.1 1.2 1.1.8 1.6 1.9 1.6 3.3 0 2.8-1.7 4.7-5 5.7 1.4.2 2.5.7 3.4 1.5.9.9 1.4 2.1 1.4 3.6 0 1.9-.7 3.4-2.1 4.6-1.4 1.4-3.1 2-5.2 2zM17.3 57c-.6 0-1.1.1-1.5.2-.9 3.8-1.4 6.5-1.7 8 .5.3 1.3.5 2.4.5 1.1 0 2-.4 2.8-1.3.8-.9 1.1-2.1 1.1-3.7 0-2.4-1.1-3.7-3.1-3.7zm1.6-9.2c-.8 0-1.2.1-1.4.2-.3 1.8-.7 4.2-1.4 7.1.8 0 1.4 0 1.7-.2s.6-.2.9-.4c.3-.2.5-.4.9-.8.7-.7 1.1-1.9 1.1-3.6s-.6-2.3-1.8-2.3z"/><path class="st4" d="M30.5 69.3c-2.1 0-3.8-.8-5-2.3-1.1-1.4-1.7-3.2-1.7-5.5 0-2.7.8-5.1 2.2-7.1 1.6-2.2 3.9-3.3 6.8-3.3h.7c.5-.2 1-.2 1.5-.2 1.4 0 3.7.6 4.4 4.2l2.8-.7.8 5.4-1.6.7c-.6.3-1.4.5-2.3.7-.5 1.8-1.3 3.5-2.4 5-1.5 2-3.7 3.1-6.2 3.1z"/><path class="st5" d="M30.8 69c-1.8 0-3.2-.7-4.2-1.9s-1.5-2.8-1.5-4.9c0-2.5.7-4.7 2-6.5 1.4-1.9 3.5-2.9 6-2.9h.8c.4-.2.9-.3 1.4-.3 1.5 0 3.2.8 3.6 4.4.3 0 .7-.1 1-.2l1.8-.4.5 3.5-.9.4c-.7.3-1.6.6-2.7.8-.5 2-1.3 3.7-2.4 5.2-1.3 1.9-3.1 2.8-5.4 2.8zm1.4-9.3c-.1.7-.2 1.4-.2 2.2 0 1.7.4 2 .4 2 .5 0 1-.6 1.3-1 .3-.5.6-1.1.8-1.7-1.1-.3-1.8-.8-2.3-1.5z"/><path class="st6" d="M30.8 67.8c-1.4 0-2.5-.5-3.3-1.5-.8-1-1.2-2.3-1.2-4.1 0-2.2.6-4.2 1.8-5.8 1.2-1.6 2.9-2.4 5-2.4l1.1.1c.3-.2.7-.3 1.1-.3 1.6 0 2.4 1.5 2.4 4.5.8 0 1.7-.2 2.5-.3l.5-.1.3 1.1c-.7.3-1.6.5-2.7.8l-.6.1c-.4 2.1-1.2 4-2.3 5.5-1.2 1.6-2.7 2.4-4.6 2.4zm1.7-2.6c.8 0 1.6-.5 2.3-1.6.7-1.1 1.1-2.2 1.4-3.4-2.2 0-3.2-.8-3.2-2.4 0-.6.1-1.2.4-1.8l.2-.3c-.1 0-.2-.1-.3-.1-.1 0-.2 0-.3.1-.5.3-1 1.1-1.4 2.3-.4 1.2-.7 2.6-.7 4.1-.1 2 .4 3.1 1.6 3.1z"/><path class="st4" d="M43.5 70c-2.1 0-3.8-.8-5-2.3-1.1-1.4-1.7-3.2-1.7-5.5 0-2.7.8-5.1 2.2-7.1 1.6-2.2 3.9-3.3 6.8-3.3h.7c.5-.2 1-.2 1.5-.2 1.4 0 3.7.6 4.4 4.2l2.8-.7.8 5.4-1.6.7c-.6.3-1.4.5-2.3.7-.5 1.8-1.3 3.5-2.4 5-1.5 2-3.6 3.1-6.2 3.1zm2.2-8.1l.1-.1h-.1v.1z"/><path class="st5" d="M43.5 69c-1.8 0-3.2-.7-4.2-1.9s-1.5-2.8-1.5-4.9c0-2.5.7-4.7 2-6.5 1.4-1.9 3.5-2.9 6-2.9h.8c.4-.2.9-.3 1.4-.3 1.5 0 3.2.8 3.6 4.4.3 0 .7-.1 1-.2l1.8-.4.5 3.5-.9.4c-.7.3-1.6.6-2.7.8-.5 2-1.3 3.7-2.4 5.2-1.3 1.9-3.2 2.8-5.4 2.8zm1.4-9.3c-.1.7-.2 1.4-.2 2.2 0 1.7.4 2 .4 2 .5 0 1-.6 1.3-1 .3-.5.6-1.1.8-1.7-1.2-.3-1.9-.8-2.3-1.5z"/><path class="st6" d="M43.5 67.8c-1.4 0-2.5-.5-3.3-1.5-.8-1-1.2-2.3-1.2-4.1 0-2.2.6-4.2 1.8-5.8 1.2-1.6 2.9-2.4 5-2.4l1.1.1c.3-.2.7-.3 1.1-.3 1.6 0 2.4 1.5 2.4 4.5.8 0 1.7-.2 2.5-.3l.5-.1.2 1.2c-.7.3-1.6.5-2.7.8l-.6.1c-.4 2.1-1.2 4-2.3 5.5-1.2 1.5-2.7 2.3-4.5 2.3zm1.6-2.6c.8 0 1.6-.5 2.3-1.6.7-1.1 1.1-2.2 1.4-3.4-2.2 0-3.2-.8-3.2-2.4 0-.6.1-1.2.4-1.8l.2-.3c-.1 0-.2-.1-.3-.1-.1 0-.2 0-.3.1-.5.3-1 1.1-1.4 2.3-.4 1.2-.7 2.6-.7 4.1 0 2 .5 3.1 1.6 3.1z"/><path class="st4" d="M55.7 76.5c-1.2 0-2.2-.3-3.2-.9-1.2-.8-1.9-2-1.9-3.4 0-.9.3-2.2 1.5-3.3-.4-.3-.8-.7-1.1-1.1-1-1.3-1.5-3-1.5-5.4 0-2.8.7-5.3 2-7.2 1.5-2.2 3.6-3.4 6.1-3.4 1 0 2.1.2 3.1.6 1-.3 2.1-.4 3.2-.4l1.6.1.6.6c.5.5.8 1.2.8 2.1 0 .4 0 .8-.1 1.2 0 .3-.1 1-.2 2-.1 1.1-.2 2.1-.3 2.9-1.3 10.3-4.8 15.6-10.6 15.6z"/><path class="st5" d="M55.7 75.4c-1 0-1.9-.3-2.7-.8-1.2-.8-1.5-1.8-1.5-2.5 0-1.2.7-2.3 2-3.3.1-.1.3-.2.4-.3-.9-.3-1.7-.8-2.3-1.5-.9-1.1-1.3-2.6-1.3-4.8 0-2.6.6-4.9 1.8-6.6 1.3-1.9 3.1-2.9 5.3-2.9 1 0 2 .2 3 .6 1-.3 2.1-.5 3.2-.5l1.4.2.3.4c.5.5.5 1.2.5 1.4 0 .3 0 .7-.1 1 0 .3-.1 1-.2 2.1s-.2 2.1-.3 2.9c-1.1 9.7-4.3 14.6-9.5 14.6zm3.1-18.3c-.2.1-.6.5-.8 1.3-.5 1.3-.7 2.7-.7 4.2 0 .7.1 1.1.1 1.3.1 0 .2-.1.4-.1.5-2.7.8-4.9 1-6.7z"/><path class="st6" d="M64.4 54.2c.1.1.1.3.1.5 0 .3 0 .6-.1.9 0 .3-.1 1-.2 2.1s-.2 2-.3 2.8c-1 9.1-3.8 13.6-8.3 13.6-.7 0-1.4-.2-2-.6-.6-.4-.9-.9-.9-1.5 0-.8.5-1.5 1.5-2.2 1-.7 2.3-1.2 4-1.5 0 0 .1-.3.2-.8s.2-1 .2-1.3c-1.2.9-2.3 1.3-3.4 1.3s-1.9-.4-2.6-1.2c-.7-.8-1-2.1-1-4 0-2.4.5-4.4 1.6-5.9 1.1-1.6 2.5-2.4 4.2-2.4 1 0 2 .2 2.9.7 1-.4 2.1-.5 3.3-.5h.8zm-9 16.5c-.7.4-1 .8-1 1.2s.2.6.6.6c.4 0 .9-.2 1.5-.6.5-.4 1-1.1 1.4-2-1 .1-1.8.4-2.5.8zm3.5-14.9c-.9 0-1.6.7-2.1 2.1-.5 1.4-.8 3-.8 4.7 0 1.7.4 2.6 1.1 2.6.5 0 1.1-.2 1.8-.6.6-3.4 1-6.2 1.2-8.4-.5-.3-.9-.4-1.2-.4z"/><path class="st4" d="M68.1 70c-1.7 0-2.7-.7-3.3-1.4-.8-.9-1.2-2-1.2-3.3 0-1 .3-2.4.8-4.5.7-2.5.7-3.1.7-3.1 0-.4-.1-.7-.4-1.1l-.7-1 .3-2.8 1.4-.5c.3-.1.6-.2.9-.2-.7-.8-1-1.8-1-3 0-1.3.5-2.5 1.6-3.4 1-.9 2.1-1.3 3.4-1.3 1.3 0 2.5.4 3.3 1.3.8.8 1.3 1.9 1.3 3.2 0 1.3-.6 2.5-1.6 3.4l-.3.3c.2.3 1 1.8 1 3.2 0 1.1-.3 2.6-.9 4.9-.1.3-.1.5-.2.7l.2-.1 2.3 4.7-1.3 1.1c-.2.2-.5.4-.8.7-.4.4-1.1.7-2.1 1.2-1.3.7-2.4 1-3.4 1z"/><path class="st5" d="M68.1 69c-1.3 0-2.1-.6-2.6-1-.6-.7-.9-1.6-.9-2.6 0-.9.3-2.2.8-4.3.6-2.4.7-3.1.7-3.3 0-.6-.2-1.1-.6-1.7l-.5-.7.1-1.7.8-.2c1.2-.3 3-.5 5.5-.5h.6l.4.4c.5.5.7 1.4.7 2.5 0 1-.3 2.5-.9 4.7-.4 1.4-.6 2.3-.7 2.8l1.2-.6 1.5 3.1-.7.6c-.2.2-.5.4-.8.7-.4.3-1 .7-1.9 1.1-.9.5-1.8.7-2.7.7zm2-16.3c-1 0-1.9-.3-2.5-.9s-1-1.5-1-2.5.4-1.9 1.2-2.7c.8-.7 1.7-1.1 2.8-1.1 1.1 0 1.9.3 2.6 1 .6.6 1 1.5 1 2.5s-.4 1.9-1.3 2.7c-.9.6-1.8 1-2.8 1z"/><path class="st6" d="M71.9 55.9c0 .8-.3 2.3-.8 4.4-.5 2.1-.8 3.4-.8 4 0 .6.1 1 .3 1 .1 0 .6-.2 1.4-.6l.4-.2.5 1.1c-.2.2-.4.4-.7.6-.3.2-.9.6-1.7 1-.8.4-1.6.6-2.3.6-.7 0-1.3-.2-1.7-.6s-.6-1-.6-1.8c0-.7.3-2 .8-3.9s.8-3.1.8-3.7c0-.8-.3-1.6-.8-2.4l-.4-.4v-.4c1.1-.3 2.8-.5 5.2-.5.2.4.4.9.4 1.8zm-3.5-5c-.4-.4-.6-.9-.6-1.6 0-.7.3-1.2.8-1.8.6-.5 1.2-.8 1.9-.8s1.3.2 1.7.6c.4.4.6.9.6 1.6 0 .7-.3 1.2-.9 1.7-.6.5-1.2.8-1.9.8-.6.1-1.2-.1-1.6-.5z"/><path class="st4" d="M78.2 70c-2.1 0-3.8-.8-5.1-2.3-1.1-1.4-1.7-3.3-1.7-5.5 0-3.1 1-5.7 3-7.6 2-1.9 4.2-2.8 6.8-2.8 1.7 0 3.1.5 4.3 1.3 1.3 1 2 2.5 2 4.1 0 1.5-.4 2.8-1.2 3.8-.3.5-.7.9-1.2 1.3l2 2.7-1 1.4c-.3.4-.8.8-1.4 1.4-.6.4-1.1.8-1.6 1.1-1.4.7-3.1 1.1-4.9 1.1z"/><path class="st5" d="M78.2 69c-1.8 0-3.2-.7-4.3-1.9-1-1.2-1.5-2.9-1.5-4.9 0-2.9.9-5.2 2.7-6.9 1.8-1.7 3.8-2.5 6.1-2.5 1.5 0 2.7.4 3.7 1.1 1.1.8 1.6 2 1.6 3.3 0 1.2-.3 2.3-1 3.2-.6.8-1.4 1.5-2.2 1.9-1.3.7-2.6 1.1-3.7 1.4.2.5.6.5.8.5.3 0 .6-.1 1-.3.6-.2.8-.4 1-.6l1.5-1.2L86 65l-.5.8c-.2.3-.6.7-1.2 1.1-.5.4-1 .7-1.5 1-1.5.8-3 1.1-4.6 1.1zm1.9-11.8c-.1.2-.2.4-.3.7-.1.4-.2.8-.3 1.1.4-.4.6-1 .6-1.8z"/><path class="st6" d="M73.7 62.2c0-2.5.8-4.5 2.3-6s3.2-2.2 5.2-2.2c1.2 0 2.2.3 2.9.9.8.6 1.1 1.4 1.1 2.3s-.2 1.8-.7 2.5c-.5.7-1.1 1.2-1.8 1.5-1.4.7-2.7 1.1-3.9 1.3l-.7.1c.1 1.9.9 2.8 2.3 2.8.5 0 1-.1 1.5-.4.5-.2 1-.5 1.3-.7l.5-.4.7 1c-.2.2-.5.5-1 .9s-.9.7-1.4.9c-1.2.6-2.4 1-3.8 1s-2.5-.5-3.3-1.5c-.8-.9-1.2-2.3-1.2-4zm6.8-2.3c.6-.7.9-1.6.9-2.7s-.3-1.6-1-1.6c-.8 0-1.4.6-1.8 2-.4 1.3-.6 2.5-.6 3.6 1.1-.2 1.9-.6 2.5-1.3z"/><path class="st4" d="M99.5 70.3c-1.1 0-2.5-.2-4.1-.5-1 .2-2 .4-2.9.4-1.4 0-1.9-.1-2.4-.3l-1.6-.7.2-1.7c.2-1.3.8-4.3 1.8-9.2 1.2-5.2 1.5-7.3 1.5-8.1-.2-.4-.4-.6-.6-.8l-1.2-1.3.6-3.1 1.5-.3c2.8-.6 5.8-.9 9-.9 2.2 0 4 .6 5.5 1.6 1.7 1.2 2.5 3 2.5 5.2 0 1.6-.4 3.8-2.4 5.6 1.4 1.3 2.1 3.1 2.1 5.3 0 2.6-1 4.7-2.8 6.3-1.8 1.7-4 2.5-6.7 2.5zm-.2-10.7c-.4 1.6-.6 3-.9 4.1.3-.1.6-.2.8-.5.4-.4.6-1.2.6-2.2 0-1.1-.2-1.4-.5-1.4z"/><path class="st5" d="M99.5 69.3c-1.1 0-2.5-.2-4.1-.6-1 .3-2 .4-2.9.4-1.4 0-1.8-.1-2.1-.2l-.9-.4.1-.9c.1-1.3.8-4.3 1.8-9.1 1.3-5.7 1.5-7.8 1.6-8.6 0 0-.1-.1-.2-.3-.2-.3-.4-.6-.7-.9l-.8-.9.4-1.9.8-.2c2.7-.6 5.7-.8 8.8-.8 1.9 0 3.6.5 4.9 1.4 1.4 1 2.1 2.5 2.1 4.4 0 1.8-.6 4-3 5.6.3.2.7.5 1 .8 1.2 1.1 1.8 2.6 1.8 4.5 0 2.3-.8 4.1-2.5 5.6-1.7 1.4-3.7 2.1-6.1 2.1zm-2.3-4.6c.2 0 .6.1 1 .1.7 0 1.3-.3 1.8-.9.6-.6.8-1.6.8-2.9 0-2.2-.9-2.4-1.9-2.4h-.5c-.5 2.6-.9 4.6-1.2 6.1zm3.2-15.3c-.2 1.3-.5 2.9-.9 4.6.1 0 .2-.1.3-.1.1-.1.3-.2.6-.6.5-.5.7-1.4.7-2.7 0-1.2-.3-1.2-.5-1.2h-.2z"/><path class="st6" d="M99.5 68c-1.1 0-2.5-.2-4.1-.6-1 .3-2 .4-2.9.4-.9 0-1.4 0-1.6-.1.1-1.2.7-4.2 1.8-8.9s1.6-7.7 1.6-8.9c0-.2-.1-.6-.4-1s-.5-.7-.8-1l-.4-.4.1-.5c2.6-.5 5.5-.8 8.5-.8 1.7 0 3 .4 4.1 1.2 1.1.8 1.6 1.9 1.6 3.3 0 2.8-1.7 4.7-5 5.7 1.4.2 2.5.7 3.4 1.5.9.9 1.4 2.1 1.4 3.6 0 1.9-.7 3.4-2.1 4.6-1.4 1.4-3.1 1.9-5.2 1.9zM99 57.3c-.6 0-1.1.1-1.5.2-.9 3.8-1.4 6.5-1.7 8 .5.3 1.3.5 2.4.5 1.1 0 2-.4 2.8-1.3.8-.9 1.1-2.1 1.1-3.7 0-2.5-1.1-3.7-3.1-3.7zm1.7-9.2c-.8 0-1.2.1-1.4.2-.3 1.8-.7 4.2-1.4 7.1.8 0 1.4 0 1.7-.2.3-.1.6-.2.9-.4.3-.2.5-.4.9-.8.7-.7 1.1-1.9 1.1-3.6-.1-1.5-.7-2.3-1.8-2.3z"/><path class="st4" d="M111 70.3c-1.3 0-2.5-.5-3.4-1.4-.9-.9-1.3-2.1-1.3-3.6 0-1.1.3-2.6.9-5 .5-1.9.6-2.7.7-3.1-.1-.1-.2-.3-.5-.6l-.7-.7.2-3.1 1.7-.3c1.5-.3 3.5-.5 5.9-.5h1.6l.3.7h.1c1-.4 2.4-.6 4.6-.6h2.8v2.3c0 1.1-.3 3-.9 6-.1.6-.2 1.1-.3 1.5l.2-.1 2.6 4.4-1.5 1.2c-2.2 1.9-4.2 2.8-6.2 2.8-1.2 0-2.2-.4-3.1-1-1.2.8-2.5 1.1-3.7 1.1z"/><path class="st5" d="M111 69.3c-1 0-2-.4-2.6-1.1-.7-.7-1-1.7-1-2.9 0-1 .3-2.5.8-4.7.7-2.8.7-3.4.7-3.5 0 0-.1-.3-.8-1l-.4-.4.1-1.9.9-.2c1.5-.3 3.3-.4 5.7-.4h.9l.3.8c.2.4.2 1 .2 1.9 0 .5-.1 1.6-.9 4.7-.4 1.7-.6 2.7-.7 3.3.1 0 .1 0 .2-.1.1-.5.3-1.3.5-2.2.7-3.1 1.1-5.3 1.1-6.6v-1l.8-.3c.9-.3 2.2-.5 4.3-.5h1.8v1.3c0 1.1-.3 2.9-.9 5.8-.3 1.7-.6 2.8-.7 3.5l1.1-.5 1.7 2.9-.8.7c-2 1.7-3.9 2.5-5.5 2.5-.9 0-1.8-.3-2.4-.8-.2-.1-.3-.3-.5-.5-1.4.8-2.7 1.2-3.9 1.2z"/><path class="st6" d="M108.5 65.4c0-.9.3-2.3.8-4.4.5-2.1.8-3.4.8-3.8 0-.5-.4-1.1-1.1-1.9v-.4c1.4-.3 3.2-.4 5.4-.4.1.3.2.7.2 1.4s-.3 2.1-.8 4.4c-.6 2.2-.8 3.6-.8 4.2 0 .5.2.8.6.8.6 0 1.3-.2 2-.6.1-.5.3-1.4.6-2.8.7-3.2 1.1-5.5 1.1-6.9.7-.3 2-.4 3.8-.4h.6c0 .9-.3 2.8-.8 5.5-.6 2.8-.8 4.4-.8 4.8 0 .5.1.7.3.7.1 0 .7-.2 1.7-.7l.6 1c-1.8 1.5-3.4 2.2-4.7 2.2-.6 0-1.2-.2-1.6-.5-.5-.4-.7-.8-.8-1.4-1.6 1.3-3.1 2-4.4 2-.7 0-1.3-.2-1.7-.7-.7-.6-1-1.2-1-2.1z"/><path class="st4" d="M122 70l-.4-1.7c-.1-.3-.1-.7-.1-1.6 0-.5.1-1.6.9-5.1.7-3.1.8-3.8.8-3.9 0 0-.1-.2-.4-.6L122 56l.2-2.8 1.5-.4c1.3-.4 3.2-.5 5.8-.5h1.5l.2.4c.7-.4 1.5-.5 2.3-.5 1.9 0 3.9 1.3 3.9 5.1v.7l-1 1.1c-.3.4-.8.7-1.5 1.2-.8.5-1.6.9-2.4 1-.5 0-.9-.1-1.2-.2-.7 3.5-.8 4.8-.8 5.3v.7l.2 1.7-1.6.6c-.7.3-1.9.6-5 .6H122z"/><path class="st5" d="M122.8 69l-.2-1c0-.2-.1-.5-.1-1.4 0-.4.1-1.4.8-4.9.7-3.3.8-3.9.8-4.1 0-.2-.1-.6-.6-1.3l-.6-.7.1-1.7.9-.2c1.2-.3 3-.5 5.6-.5h.8l.4.8c.9-.7 1.8-1 2.7-1 .9 0 2.9.4 2.9 4.1v.5l-.7.8c-.3.3-.6.6-1.3 1-.7.4-1.3.7-2 .8h-.1c-.8 0-1.1-.4-1.6-1.2-1 4.7-1.2 6.6-1.2 7.3v.8l.1 1-.9.4c-.6.2-1.6.5-4.7.5h-1.1z"/><path class="st6" d="M124 67.8h-.2c0-.2-.1-.5-.1-1.1 0-.6.3-2.1.8-4.6.5-2.5.8-4 .8-4.3 0-.6-.3-1.3-.8-2.1l-.3-.4v-.4c1.1-.3 2.8-.5 5.2-.5.2.5.4 1.3.4 2.2.2-.4.7-.8 1.4-1.5.7-.6 1.4-.9 2.2-.9 1.1 0 1.6.9 1.6 2.8-.1.1-.2.3-.4.5s-.5.5-1 .8c-.5.3-1 .6-1.5.6 0 0-.2-.3-.5-.8s-.6-.8-.7-.8c-.5.2-.9.5-1.3.9-.9 4.2-1.4 6.9-1.4 8.1v.9c-.7.4-2.1.6-4.2.6z"/><path class="st4" d="M138.4 76.7c-1.2 0-2.2-.3-3.2-.9-1.2-.8-1.9-2-1.9-3.4 0-.9.3-2.2 1.5-3.3-.4-.3-.8-.7-1.1-1.1-1-1.3-1.5-3-1.5-5.4 0-2.8.7-5.3 2-7.2 1.5-2.2 3.6-3.4 6.1-3.4 1 0 2.1.2 3.1.6 1-.3 2.1-.4 3.2-.4l1.6.1.6.6c.5.5.8 1.2.8 2.1 0 .4 0 .8-.1 1.2 0 .3-.1 1-.2 2-.1 1.1-.2 2.1-.3 2.9-1.2 10.4-4.7 15.6-10.6 15.6z"/><path class="st5" d="M138.4 75.7c-1 0-1.9-.3-2.7-.8-1.2-.8-1.5-1.8-1.5-2.5 0-1.2.7-2.3 2-3.3.1-.1.3-.2.4-.3-.9-.3-1.7-.8-2.3-1.5-.9-1.1-1.3-2.6-1.3-4.8 0-2.6.6-4.9 1.8-6.6 1.3-1.9 3.1-2.9 5.3-2.9 1 0 2 .2 3 .6 1-.3 2.1-.5 3.2-.5l1.2.1.3.3c.5.5.5 1.2.5 1.4 0 .3 0 .7-.1 1 0 .3-.1 1-.2 2.1s-.2 2.1-.3 2.9c-.8 9.9-4 14.8-9.3 14.8zm3.2-18.4c-.2.1-.6.5-.8 1.3-.5 1.3-.7 2.7-.7 4.2 0 .7.1 1.1.1 1.3.1 0 .2-.1.4-.1.5-2.6.8-4.8 1-6.7z"/><path class="st6" d="M147.2 54.5c.1.1.1.3.1.5 0 .3 0 .6-.1.9 0 .3-.1 1-.2 2.1s-.2 2-.3 2.8c-1 9.1-3.8 13.6-8.3 13.6-.7 0-1.4-.2-2-.6-.6-.4-.9-.9-.9-1.5 0-.8.5-1.5 1.5-2.2 1-.7 2.3-1.2 4-1.5 0 0 .1-.3.2-.8s.2-1 .2-1.3c-1.2.9-2.3 1.3-3.4 1.3s-1.9-.4-2.6-1.2c-.7-.8-1-2.1-1-4 0-2.4.5-4.4 1.6-5.9 1.1-1.6 2.5-2.4 4.2-2.4 1 0 2 .2 2.9.7 1-.4 2.1-.5 3.3-.5h.8zm-9 16.4c-.7.4-1 .8-1 1.2s.2.6.7.6c.4 0 .9-.2 1.5-.6.5-.4 1-1.1 1.4-2-1.1.2-1.9.4-2.6.8zm3.4-14.8c-.9 0-1.6.7-2.1 2.1-.5 1.4-.8 3-.8 4.7 0 1.7.4 2.6 1.1 2.6.5 0 1.1-.2 1.8-.6.6-3.4 1-6.2 1.2-8.4-.4-.3-.8-.4-1.2-.4z"/><path class="st4" d="M152.8 70.3c-2.1 0-3.8-.8-5.1-2.3-1.1-1.4-1.7-3.3-1.7-5.5 0-3.1 1-5.7 3-7.6 2-1.9 4.2-2.8 6.8-2.8 1.7 0 3.1.5 4.3 1.3 1.3 1 2 2.5 2 4.1 0 1.5-.4 2.8-1.2 3.8-.3.5-.7.9-1.2 1.3l2 2.7-1 1.4c-.3.4-.8.8-1.4 1.4-.6.4-1.1.8-1.6 1.1-1.5.7-3.2 1.1-4.9 1.1z"/><path class="st5" d="M152.8 69.3c-1.8 0-3.2-.7-4.3-1.9-1-1.2-1.5-2.9-1.5-4.9 0-2.9.9-5.2 2.7-6.9 1.8-1.7 3.8-2.5 6.1-2.5 1.5 0 2.7.4 3.7 1.1 1.1.8 1.6 2 1.6 3.3 0 1.2-.3 2.3-1 3.2-.6.8-1.4 1.5-2.2 1.9-1.3.7-2.6 1.1-3.7 1.4.2.5.6.5.8.5.3 0 .6-.1 1-.3.6-.2.8-.4 1-.6l1.5-1.2 2.1 2.8-.6.8c-.2.3-.6.7-1.2 1.1-.5.4-1 .7-1.5 1-1.4.8-2.9 1.2-4.5 1.2zm1.9-11.8c-.1.2-.2.4-.3.7-.1.4-.2.8-.3 1.1.4-.4.6-1 .6-1.8z"/><path class="st6" d="M148.3 62.5c0-2.5.8-4.5 2.3-6 1.5-1.5 3.2-2.2 5.2-2.2 1.2 0 2.2.3 2.9.9.8.6 1.1 1.4 1.1 2.3s-.2 1.8-.7 2.5c-.5.7-1.1 1.2-1.8 1.5-1.4.7-2.7 1.1-3.9 1.3l-.7.1c.1 1.9.9 2.8 2.3 2.8.5 0 1-.1 1.5-.4.5-.2 1-.5 1.3-.7l.5-.4.7 1c-.2.2-.5.5-1 .9s-.9.7-1.4.9c-1.2.6-2.4 1-3.8 1s-2.5-.5-3.3-1.5c-.8-.9-1.2-2.3-1.2-4zm6.7-2.3c.6-.7.9-1.6.9-2.7s-.3-1.6-1-1.6c-.8 0-1.4.6-1.8 2-.4 1.3-.6 2.5-.6 3.6 1.1-.2 1.9-.7 2.5-1.3z"/><path class="st4" d="M173.4 59.1c-.3.4-.8.7-1.5 1.2-.8.5-1.6.9-2.4 1-.5 0-.9-.1-1.2-.2-.7 3.5-.8 4.8-.8 5.3v.7l.2 1.7-1.6.6c-.7.3-1.9.6-5 .6h-2l-.4-1.7c-.1-.3-.1-.7-.1-1.6 0-.5.1-1.6.9-5.1.7-3.1.8-3.8.8-3.9 0 0-.1-.2-.4-.6L159 56l.2-2.8 1.5-.4c1.3-.4 3.2-.5 5.8-.5h1.5l.2.4c.7-.4 1.5-.5 2.3-.5 1.9 0 3.9 1.3 3.9 5.1"/><path class="st5" d="M173.4 57.6l-.7.8c-.3.3-.6.6-1.3 1-.7.4-1.3.7-2 .8h-.1c-.8 0-1.1-.4-1.6-1.2-1 4.7-1.2 6.6-1.2 7.3v.8l.1 1-.9.4c-.6.2-1.6.5-4.7.5h-1.2l-.2-1c0-.2-.1-.5-.1-1.4 0-.4.1-1.4.8-4.9.7-3.3.8-3.9.8-4.1 0-.2-.1-.6-.6-1.3l-.6-.7.1-1.7.9-.2c1.2-.3 3-.5 5.6-.5h.8l.4.8c.9-.7 1.8-1 2.7-1 .9 0 2.9.4 2.9 4.1"/><path class="st6" d="M161.1 67.8h-.2c0-.2-.1-.5-.1-1.1 0-.6.3-2.1.8-4.6.5-2.5.8-4 .8-4.3 0-.6-.3-1.3-.8-2.1l-.3-.4v-.4c1.1-.3 2.8-.5 5.2-.5.2.5.4 1.3.4 2.2.2-.4.7-.8 1.4-1.5.7-.6 1.4-.9 2.2-.9 1.1 0 1.6.9 1.6 2.8-.1.1-.2.3-.4.5s-.5.5-1 .8c-.5.3-1 .6-1.5.6 0 0-.2-.3-.5-.8s-.6-.8-.7-.8c-.5.2-.9.5-1.3.9-.9 4.2-1.4 6.9-1.4 8.1v.9c-.8.4-2.2.6-4.2.6z"/></svg>